<?xml version="1.0" encoding="UTF-8"?>
<svg width="752pt" height="752pt" version="1.1" viewBox="0 0 752 752" xmlns="http://www.w3.org/2000/svg">
 <path d="m432.36 384.53-76.25 76.246c-1.8945 1.8945-4.2617 2.8398-6.6289 2.8398-2.3672 0-4.7344-0.94531-6.6289-2.8398-3.7891-3.7891-3.7891-9.4727 0-13.262l69.617-69.617-73.879-73.402c-3.7891-3.7891-3.7891-9.4727 0-13.262 3.7891-3.7891 9.4727-3.7891 13.262 0l80.508 80.035c3.3125 3.7891 3.3125 9.4727 0 13.262zm123.6-8.5273c0 99.453-80.508 179.96-179.96 179.96-99.449 0-179.96-80.508-179.96-179.96s80.508-179.96 179.96-179.96 179.96 80.512 179.96 179.96zm-18.941 0c0-89.035-71.984-161.02-161.02-161.02-89.035 0-161.02 71.984-161.02 161.02 0 89.035 71.984 161.02 161.02 161.02 89.035 0.003906 161.02-71.98 161.02-161.02z"/>
</svg>
