{
  "accessors": [
    {
      "bufferView": 2,
      "componentType": 5126,
      "count": 9749,
      "max": [
        83.56474304199219,
        11.855104446411133,
        173.31971740722656
      ],
      "min": [
        -83.57359313964844,
        -13.182395935058594,
        0.005683999974280596
      ],
      "type": "VEC3"
    },
    {
      "bufferView": 2,
      "byteOffset": 116988,
      "componentType": 5126,
      "count": 9749,
      "max": [
        0.9999281167984009,
        0.9999719858169556,
        0.9999573826789856
      ],
      "min": [
        -0.999768853187561,
        -0.9999843835830688,
        -0.9999902248382568
      ],
      "type": "VEC3"
    },
    {
      "bufferView": 3,
      "componentType": 5126,
      "count": 9749,
      "max": [
        0.9999988675117493,
        0.9999474883079529,
        0.9999744296073914,
        1.0
      ],
      "min": [
        -0.9999921917915344,
        -0.9999618530273438,
        -0.9998747706413269,
        -1.0
      ],
      "type": "VEC4"
    },
    {
      "bufferView": 1,
      "componentType": 5126,
      "count": 9749,
      "max": [
        0.9924700260162354,
        0.9982979893684387
      ],
      "min": [
        0.004989999812096357,
        0.008089999668300152
      ],
      "type": "VEC2"
    },
    {
      "bufferView": 0,
      "componentType": 5125,
      "count": 51006,
      "type": "SCALAR"
    },
    {
      "bufferView": 2,
      "byteOffset": 233976,
      "componentType": 5126,
      "count": 1132,
      "max": [
        33.57979202270508,
        11.757063865661621,
        148.58116149902344
      ],
      "min": [
        -33.62467956542969,
        -11.621889114379883,
        79.89376831054688
      ],
      "type": "VEC3"
    },
    {
      "bufferView": 2,
      "byteOffset": 247560,
      "componentType": 5126,
      "count": 1132,
      "max": [
        0.995304524898529,
        0.9995927810668945,
        0.9994563460350037
      ],
      "min": [
        -0.9982452392578125,
        -0.9995366334915161,
        -0.9997830986976624
      ],
      "type": "VEC3"
    },
    {
      "bufferView": 3,
      "byteOffset": 155984,
      "componentType": 5126,
      "count": 1132,
      "max": [
        0.9999275207519531,
        0.9995476603507996,
        0.9712792634963989,
        1.0
      ],
      "min": [
        -0.9998296499252319,
        -0.9994604587554932,
        -0.982524573802948,
        -1.0
      ],
      "type": "VEC4"
    },
    {
      "bufferView": 1,
      "byteOffset": 77992,
      "componentType": 5126,
      "count": 1132,
      "max": [
        0.4960330128669739,
        0.9959499835968018
      ],
      "min": [
        0.0005130000063218176,
        0.7532899975776672
      ],
      "type": "VEC2"
    },
    {
      "bufferView": 0,
      "byteOffset": 204024,
      "componentType": 5125,
      "count": 4962,
      "type": "SCALAR"
    }
  ],
  "asset": {
    "extras": {
      "author": "samsikua (https://sketchfab.com/samsikua)",
      "license": "CC-BY-4.0 (http://creativecommons.org/licenses/by/4.0/)",
      "source": "https://sketchfab.com/3d-models/zombie-woman-4cd9c13dabcc4181b4546e976e444068",
      "title": "Zombie Woman"
    },
    "generator": "Sketchfab-13.80.0",
    "version": "2.0"
  },
  "bufferViews": [
    {
      "buffer": 0,
      "byteLength": 223872,
      "name": "floatBufferViews",
      "target": 34963
    },
    {
      "buffer": 0,
      "byteLength": 87048,
      "byteOffset": 223872,
      "byteStride": 8,
      "name": "floatBufferViews",
      "target": 34962
    },
    {
      "buffer": 0,
      "byteLength": 261144,
      "byteOffset": 310920,
      "byteStride": 12,
      "name": "floatBufferViews",
      "target": 34962
    },
    {
      "buffer": 0,
      "byteLength": 174096,
      "byteOffset": 572064,
      "byteStride": 16,
      "name": "floatBufferViews",
      "target": 34962
    }
  ],
  "buffers": [
    {
      "byteLength": 746160,
      "uri": "scene.bin"
    }
  ],
  "extensionsRequired": [
    "KHR_materials_pbrSpecularGlossiness"
  ],
  "extensionsUsed": [
    "KHR_materials_pbrSpecularGlossiness"
  ],
  "images": [
    {
      "uri": "textures/PackedMaterial0_diffuse.png"
    },
    {
      "uri": "textures/PackedMaterial0_specularGlossiness.png"
    },
    {
      "uri": "textures/PackedMaterial0_normal.png"
    },
    {
      "uri": "textures/PackedMaterial1_diffuse.png"
    },
    {
      "uri": "textures/PackedMaterial1_specularGlossiness.png"
    },
    {
      "uri": "textures/PackedMaterial1_normal.png"
    }
  ],
  "materials": [
    {
      "doubleSided": true,
      "extensions": {
        "KHR_materials_pbrSpecularGlossiness": {
          "diffuseFactor": [
            1.0,
            1.0,
            1.0,
            1.0
          ],
          "diffuseTexture": {
            "index": 0
          },
          "glossinessFactor": 0.0,
          "specularFactor": [
            0.05,
            0.05,
            0.05
          ],
          "specularGlossinessTexture": {
            "index": 1
          }
        }
      },
      "name": "PackedMaterial0",
      "normalTexture": {
        "index": 2
      }
    },
    {
      "doubleSided": true,
      "extensions": {
        "KHR_materials_pbrSpecularGlossiness": {
          "diffuseFactor": [
            1.0,
            1.0,
            1.0,
            1.0
          ],
          "diffuseTexture": {
            "index": 3
          },
          "glossinessFactor": 0.0,
          "specularFactor": [
            0.05,
            0.05,
            0.05
          ],
          "specularGlossinessTexture": {
            "index": 4
          }
        }
      },
      "name": "PackedMaterial1",
      "normalTexture": {
        "index": 5
      }
    }
  ],
  "meshes": [
    {
      "name": "Object_0",
      "primitives": [
        {
          "attributes": {
            "NORMAL": 1,
            "POSITION": 0,
            "TANGENT": 2,
            "TEXCOORD_0": 3
          },
          "indices": 4,
          "material": 0,
          "mode": 4
        }
      ]
    },
    {
      "name": "Object_1",
      "primitives": [
        {
          "attributes": {
            "NORMAL": 6,
            "POSITION": 5,
            "TANGENT": 7,
            "TEXCOORD_0": 8
          },
          "indices": 9,
          "material": 1,
          "mode": 4
        }
      ]
    }
  ],
  "nodes": [
    {
      "children": [
        1
      ],
      "matrix": [
        1.0,
        0.0,
        0.0,
        0.0,
        0.0,
        2.220446049250313e-16,
        -1.0,
        0.0,
        0.0,
        1.0,
        2.220446049250313e-16,
        0.0,
        0.0,
        0.0,
        0.0,
        1.0
      ],
      "name": "Sketchfab_model"
    },
    {
      "children": [
        2,
        3
      ],
      "name": "ZombieWoman.obj.cleaner.materialmerger.gles"
    },
    {
      "mesh": 0,
      "name": "Object_2"
    },
    {
      "mesh": 1,
      "name": "Object_3"
    }
  ],
  "samplers": [
    {
      "magFilter": 9729,
      "minFilter": 9987,
      "wrapS": 10497,
      "wrapT": 10497
    }
  ],
  "scene": 0,
  "scenes": [
    {
      "name": "Sketchfab_Scene",
      "nodes": [
        0
      ]
    }
  ],
  "textures": [
    {
      "sampler": 0,
      "source": 0
    },
    {
      "sampler": 0,
      "source": 1
    },
    {
      "sampler": 0,
      "source": 2
    },
    {
      "sampler": 0,
      "source": 3
    },
    {
      "sampler": 0,
      "source": 4
    },
    {
      "sampler": 0,
      "source": 5
    }
  ]
}
